<?xml version="1.0" encoding="utf-8"?>
<!-- Generator: Adobe Illustrator 23.1.1, SVG Export Plug-In . SVG Version: 6.00 Build 0)  -->
<svg version="1.1" id="图层_1" xmlns="http://www.w3.org/2000/svg" xmlns:xlink="http://www.w3.org/1999/xlink" x="0px" y="0px"
	 viewBox="0 0 380 146" style="enable-background:new 0 0 380 146;" xml:space="preserve">
<style type="text/css">
	.st0{fill:#02EAD0;}
</style>
<g>
	<g>
		<polygon class="st0" points="83.62,56.46 36.96,56.46 36.96,3 3.88,3 3.88,143 36.96,143 36.96,89.54 83.62,89.54 83.62,143 
			116.7,143 116.7,3 83.62,3 		"/>
		<path class="st0" d="M186.55,23.29c-33.06,0-59.86,26.8-59.86,59.85S153.5,143,186.55,143c33.06,0,59.85-26.8,59.85-59.86
			S219.61,23.29,186.55,23.29 M186.55,109.55c-14.59,0-26.41-11.82-26.41-26.41s11.83-26.41,26.41-26.41
			c14.59,0,26.41,11.82,26.41,26.41S201.14,109.55,186.55,109.55"/>
		<path class="st0" d="M316.26,23.29c-33.06,0-59.86,26.8-59.86,59.85S283.21,143,316.26,143c33.06,0,59.85-26.8,59.85-59.86
			S349.32,23.29,316.26,23.29 M316.26,109.55c-14.59,0-26.41-11.82-26.41-26.41s11.82-26.41,26.41-26.41
			c14.58,0,26.41,11.82,26.41,26.41S330.85,109.55,316.26,109.55"/>
	</g>
</g>
</svg>
