<?xml version="1.0" encoding="UTF-8"?>
<svg width="35px" height="35px" viewBox="0 0 35 35" version="1.1" xmlns="http://www.w3.org/2000/svg" xmlns:xlink="http://www.w3.org/1999/xlink">
    <!-- Generator: Sketch 55.1 (78136) - https://sketchapp.com -->
    <title>Fill 1</title>
    <desc>Created with Sketch.</desc>
    <g id="主页" stroke="none" stroke-width="1" fill="none" fill-rule="evenodd">
        <g id="首页-新" transform="translate(-1645.000000, -3164.000000)" fill="#B7C3D0">
            <g id="底部" transform="translate(0.000000, 3055.000000)">
                <g id="底部1">
                    <g id="6" transform="translate(1450.000000, 30.000000)">
                        <g id="3" transform="translate(0.000000, 34.000000)">
                            <g id="1备份" transform="translate(195.000000, 45.000000)">
                                <path d="M17.5,35 C7.851,35 0,27.149 0,17.5 C0,7.851 7.851,0 17.5,0 C27.149,0 35,7.851 35,17.5 C35,27.149 27.149,35 17.5,35" id="Fill-1" opacity="0.100000001"></path>
                                <path d="M17.5,16 C18.8807,16 20,17.1193 20,18.5 C20,19.8807 18.8807,21 17.5,21 C16.1193,21 15,19.8807 15,18.5 C15,17.1193 16.1193,16 17.5,16 M24,13.5 C24,12.6715945 23.3284055,12 22.5,12 C21.6715945,12 21,12.6715945 21,13.5 C21,14.3284055 21.6715945,15 22.5,15 C23.3284055,15 24,14.3284055 24,13.5 M17.500486,14 C15.0151801,13.999784 13.000324,16.0142919 13,18.499568 C12.999784,20.9848441 15.0143161,22.999676 17.499622,23 L17.500486,23 C19.9857919,22.999676 22.000324,20.9848441 22,18.499568 C21.999784,16.0146159 19.9854679,14.000216 17.500486,14 M18.000054,9 C20.4453851,9 20.7504845,9.00896404 21.7098466,9.05400022 C22.6683447,9.0989284 23.3208794,9.249265 23.8950062,9.47250189 C24.489005,9.7010308 24.989476,10.010668 25.489839,10.51017 C25.9475421,10.9600998 26.3015654,11.504314 26.5275009,12.1050124 C26.7498725,12.6782787 26.9010722,13.3316813 26.9460001,14.2901852 C26.988336,15.249553 27,15.5546542 27,18 C27,20.4453458 26.991036,20.750447 26.9460001,21.7098148 C26.9010722,22.6683187 26.7498725,23.3208573 26.5275009,23.8949876 C26.3022134,24.49601 25.9480821,25.0403322 25.489839,25.48983 C25.0398039,25.9473198 24.495701,26.3013452 23.8950062,26.5274981 C23.3217434,26.749871 22.6683447,26.9010716 21.7098466,26.9459998 C20.7504845,26.988336 20.4453851,27 18.000054,27 C15.5547229,27 15.2496235,26.991036 14.2902614,26.9459998 C13.3317633,26.9010716 12.6792286,26.749871 12.1049938,26.5274981 C11.504191,26.3021012 10.9597641,25.9478598 10.510269,25.48983 C10.0525659,25.0400082 9.6984346,24.495794 9.47249906,23.8949876 C9.2493715,23.3217213 9.0990358,22.6683187 9.05399989,21.7098148 C9.01177198,20.750447 9,20.4453458 9,18 C9,15.5546542 9.00907198,15.249553 9.05399989,14.2901852 C9.0990358,13.3308173 9.2493715,12.6791427 9.47249906,12.1050124 C9.6977866,11.50399 10.0520259,10.9595598 10.510269,10.51017 C10.9599801,10.0522482 11.504299,9.69811479 12.1049938,9.47250189 C12.6792286,9.249265 13.3308993,9.0989284 14.2902614,9.05400022 C15.2496235,9.01166405 15.5547229,9 18.000054,9" id="Fill-1"></path>
                            </g>
                        </g>
                    </g>
                </g>
            </g>
        </g>
    </g>
</svg>