<?xml version="1.0" encoding="UTF-8"?>
<svg width="35px" height="35px" viewBox="0 0 35 35" version="1.1" xmlns="http://www.w3.org/2000/svg" xmlns:xlink="http://www.w3.org/1999/xlink">
    <!-- Generator: Sketch 55.1 (78136) - https://sketchapp.com -->
    <title>Clip 2</title>
    <desc>Created with Sketch.</desc>
    <g id="主页" stroke="none" stroke-width="1" fill="none" fill-rule="evenodd">
        <g id="首页-新" transform="translate(-1515.000000, -3164.000000)" fill="#B7C3D0">
            <g id="底部" transform="translate(0.000000, 3055.000000)">
                <g id="底部1">
                    <g id="6" transform="translate(1450.000000, 30.000000)">
                        <g id="3" transform="translate(0.000000, 34.000000)">
                            <g id="5备份-2" transform="translate(65.000000, 45.000000)">
                                <path d="M0,17.5001068 C0,27.1650234 7.83497661,35 17.5001068,35 C27.1650234,35 35,27.1650234 35,17.5001068 C35,7.83497661 27.1650234,0 17.5001068,0 C7.83497661,0 0,7.83497661 0,17.5001068" id="Fill-1" opacity="0.1"></path>
                                <path d="M21.4226611,12.0345958 C21.2553372,11.9655688 19.4481114,11.3449842 18.6782723,11.8966515 C17.8750964,12.4828873 17.9086463,14.4138877 17.9755333,14.4138877 C19.7492091,14.5517222 21.3891111,15.1034994 22.6273718,15.9656237 C22.7278087,16.0346507 23.7987455,15.0690407 24.9701193,15.276012 C26.1413865,15.4828736 26.944669,16.6207767 26.5764713,17.8966241 C26.20838,19.1380129 25.0704497,19.5173871 25.1038932,19.8966515 L25.1038932,20.2069987 C25.1038932,23.4138466 21.556435,26 17.1723573,26 C12.7881731,26 9.24071493,23.4138466 9.24071493,20.2069987 C9.24071493,20.0344861 9.24071493,19.8966515 9.27415841,19.7241389 C9.27415841,19.6896802 8.47098243,19.2414985 8.16977812,18.4828598 C7.86857381,17.7586798 8.00245423,16.8966652 8.30365853,16.3793468 C8.80563021,15.5862495 9.40803882,15.2759023 10.2446583,15.2759023 C11.0812777,15.2759023 11.9849972,15.793111 12.0184406,15.793111 C13.3570318,14.9655551 15.0972641,14.4483463 16.9714834,14.413778 C17.0383704,14.413778 16.837603,12.0689447 18.1093072,11.2069301 C19.4145614,10.3449156 21.5563285,11.2069301 21.589772,11.2069301 L21.589772,11.2758474 C21.9245262,10.5173185 22.6608153,10 23.4973282,10 C24.6688085,10 25.6058649,11.0000686 25.6058649,12.206889 C25.6058649,13.4138191 24.668915,14.413778 23.4973282,14.413778 C22.3259545,14.413778 21.3890046,13.4137094 21.3890046,12.206889 C21.3890046,12.137862 21.3890046,12.0689447 21.4224481,12.0345958 L21.4226611,12.0345958 Z M20.3516178,19.9311102 C20.9205829,19.9311102 21.4226611,19.4483601 21.4226611,18.8275559 C21.4226611,18.2068615 20.9541329,17.7241114 20.3516178,17.7241114 C19.7492091,17.7241114 19.2807875,18.2068615 19.2807875,18.8275559 C19.2807875,19.4483601 19.7492091,19.9311102 20.3516178,19.9311102 L20.3516178,19.9311102 Z M13.9929904,19.9311102 C14.5619555,19.9311102 15.0640337,19.4483601 15.0640337,18.8275559 C15.0640337,18.2068615 14.595399,17.7241114 13.9929904,17.7241114 C13.4241317,17.7241114 12.9220536,18.2068615 12.9220536,18.8275559 C12.955497,19.4483601 13.4240252,19.9311102 13.9929904,19.9311102 L13.9929904,19.9311102 Z M17.4400116,22.5861809 C15.5324554,22.5861809 14.4279686,21.7586249 14.4279686,21.7586249 C14.3276381,21.6895979 14.2272012,21.7241663 14.1936512,21.827652 L13.9928839,22.2069164 C13.9594404,22.3104021 13.9594404,22.4484561 14.0598773,22.5172636 C14.0598773,22.5172636 14.9969337,23.5173322 17.4400116,23.5173322 C19.8831961,23.5173322 20.753259,22.4484561 20.753259,22.4484561 C20.8202525,22.3794291 20.8202525,22.2414848 20.7867025,22.1725675 L20.5523851,21.827652 C20.4853917,21.7586249 20.3850612,21.7241663 20.2846243,21.7931933 C20.2846243,21.7586249 19.3476744,22.5861809 17.4399051,22.5861809 L17.4400116,22.5861809 Z M23.5309847,13.3103335 C24.0999498,13.3103335 24.602028,12.8276931 24.602028,12.206889 C24.602028,11.5861946 24.1333933,11.1034445 23.5309847,11.1034445 C22.9621261,11.1034445 22.4600479,11.5861946 22.4600479,12.206889 C22.4600479,12.7931247 22.9285761,13.3103335 23.5309847,13.3103335 L23.5309847,13.3103335 Z" id="Fill-1"></path>
                            </g>
                        </g>
                    </g>
                </g>
            </g>
        </g>
    </g>
</svg>